/* XPM */
static const char * messagebox_info_xpm[] = {
"32 32 268 2",
"  	c None",
". 	c #5D8DC9",
"+ 	c #6A96CB",
"@ 	c #86A9D0",
"# 	c #87A9D2",
"$ 	c #6F98CE",
"% 	c #5E8DC9",
"& 	c #8EAED2",
"* 	c #A9C0D7",
"= 	c #9FB9D3",
"- 	c #8FADCD",
"; 	c #90AECD",
"> 	c #A0BAD3",
", 	c #ADC3DA",
"' 	c #A1BBD8",
") 	c #6593CC",
"! 	c #6694CB",
"~ 	c #9CB6D4",
"{ 	c #8CAACA",
"] 	c #7DA0C4",
"^ 	c #99B4D1",
"/ 	c #ACC2D9",
"( 	c #B5C8DE",
"_ 	c #9FB8D3",
": 	c #86A6C9",
"< 	c #8EACCC",
"[ 	c #AAC1D9",
"} 	c #7DA2D0",
"| 	c #5D8CC8",
"1 	c #6390CA",
"2 	c #9DB7D3",
"3 	c #7EA1C5",
"4 	c #CDDAE8",
"5 	c #E3EBF2",
"6 	c #E4EBF2",
"7 	c #E4ECF3",
"8 	c #E5ECF3",
"9 	c #E1E9F1",
"0 	c #A6BED7",
"a 	c #8AAACB",
"b 	c #799FCE",
"c 	c #8FAED2",
"d 	c #85A5C8",
"e 	c #82A4C7",
"f 	c #D1DDEA",
"g 	c #E4EBF3",
"h 	c #E6ECF3",
"i 	c #E6EDF4",
"j 	c #E7EEF4",
"k 	c #9EB8D3",
"l 	c #A9C0D9",
"m 	c #5F8CC5",
"n 	c #6D97CC",
"o 	c #92AFCE",
"p 	c #E7EDF4",
"q 	c #E8EEF5",
"r 	c #E9EFF5",
"s 	c #BBCEE0",
"t 	c #97B3D1",
"u 	c #98B3D1",
"v 	c #94B0D2",
"w 	c #85A7D0",
"x 	c #86A6C8",
"y 	c #BDCEE1",
"z 	c #9FB9D4",
"A 	c #E3EAF2",
"B 	c #E8EEF4",
"C 	c #EBF0F6",
"D 	c #EBF1F7",
"E 	c #EAF0F6",
"F 	c #B9CCE0",
"G 	c #A0B9D4",
"H 	c #99B5D1",
"I 	c #A8BFD9",
"J 	c #5483BE",
"K 	c #5A8AC6",
"L 	c #91AED1",
"M 	c #A4BCD6",
"N 	c #DEE7F0",
"O 	c #BACDE0",
"P 	c #BBCEE1",
"Q 	c #EAF0F5",
"R 	c #ECF1F7",
"S 	c #D9E4EE",
"T 	c #ADC4DB",
"U 	c #A7C0D8",
"V 	c #A0B9D6",
"W 	c #AEC4DB",
"X 	c #5A86BE",
"Y 	c #5988C4",
"Z 	c #DFE7F0",
"` 	c #B3C8DD",
" .	c #99B5D2",
"..	c #7799C2",
"+.	c #ADC1DA",
"@.	c #C8D6E6",
"#.	c #D7E1ED",
"$.	c #B9CBE0",
"%.	c #8DA9CC",
"&.	c #678DBA",
"*.	c #A6BFD8",
"=.	c #ABC2D9",
"-.	c #658DC1",
";.	c #5685C1",
">.	c #94B2D1",
",.	c #A8C0D8",
"'.	c #A5BDD7",
").	c #4B77AE",
"!.	c #A7BED9",
"~.	c #BACEE2",
"{.	c #C1D3E4",
"].	c #C4D6E7",
"^.	c #C6D6E7",
"/.	c #9CB6D3",
"(.	c #7195C0",
"_.	c #B3C8DF",
":.	c #ACC3DB",
"<.	c #B2C7DD",
"[.	c #5A85BB",
"}.	c #81A3CC",
"|.	c #9BB6D3",
"1.	c #9CB7D3",
"2.	c #6288B8",
"3.	c #ACC2DA",
"4.	c #C0D3E5",
"5.	c #C8D8E8",
"6.	c #CDDCEB",
"7.	c #CFDDEB",
"8.	c #80A0C7",
"9.	c #9FB9D5",
"0.	c #B8CCE0",
"a.	c #B0C6DC",
"b.	c #A6BED9",
"c.	c #4A79B4",
"d.	c #5583BD",
"e.	c #A1BBD6",
"f.	c #ABC2DB",
"g.	c #A7BFD8",
"h.	c #C7D7E7",
"i.	c #D5E2EE",
"j.	c #D7E3F0",
"k.	c #6389B9",
"l.	c #C5D5E6",
"m.	c #BDD0E2",
"n.	c #BFD1E4",
"o.	c #5F88BB",
"p.	c #7EA1CA",
"q.	c #ABC2DA",
"r.	c #ADC4DC",
"s.	c #B7CBE0",
"t.	c #CADAE9",
"u.	c #D4E1ED",
"v.	c #DBE7F2",
"w.	c #DFEAF3",
"x.	c #CAD9EA",
"y.	c #7396C1",
"z.	c #C3D5E5",
"A.	c #A2BBD7",
"B.	c #4775B0",
"C.	c #4C7BB6",
"D.	c #AFC5DD",
"E.	c #C1D3E5",
"F.	c #CCDCEA",
"G.	c #D6E2EF",
"H.	c #E0EAF4",
"I.	c #E7F0F7",
"J.	c #A4BCD7",
"K.	c #AFC4DC",
"L.	c #CAD9E8",
"M.	c #5780B5",
"N.	c #82A3CA",
"O.	c #B3C7DC",
"P.	c #B7CCE0",
"Q.	c #CBDBEA",
"R.	c #D5E1EF",
"S.	c #DEE9F3",
"T.	c #E4EDF6",
"U.	c #96B1D1",
"V.	c #D2DFEE",
"W.	c #BFD0E3",
"X.	c #4875AE",
"Y.	c #4E7AB3",
"Z.	c #B9CDE1",
"`.	c #B6CADF",
" +	c #C0D2E4",
".+	c #C8D9E8",
"++	c #D1DFEC",
"@+	c #D8E5F0",
"#+	c #D6E3EF",
"$+	c #ACC1DB",
"%+	c #CCDBEA",
"&+	c #799AC3",
"*+	c #8CA9CC",
"=+	c #BBCFE0",
"-+	c #C4D5E3",
";+	c #CCDAE6",
">+	c #D1DFE9",
",+	c #C5D5E5",
"'+	c #CDDCEA",
")+	c #BCCFE2",
"!+	c #4672AC",
"~+	c #4571A7",
"{+	c #94AEC2",
"]+	c #C5D4DE",
"^+	c #C9D7E1",
"/+	c #CDDAE4",
"(+	c #D0DDE6",
"_+	c #D3DFE7",
":+	c #D2DEE7",
"<+	c #A2B9D0",
"[+	c #4D76A4",
"}+	c #9AA87C",
"|+	c #5D829E",
"1+	c #6D8FA9",
"2+	c #7E9CB4",
"3+	c #7A99B1",
"4+	c #688AA7",
"5+	c #567D9F",
"6+	c #AFB774",
"7+	c #CEAF14",
"8+	c #C6A406",
"9+	c #F9E54C",
"0+	c #FDF39E",
"a+	c #FBEA5B",
"b+	c #E2D85A",
"c+	c #EBDE56",
"d+	c #FCE94F",
"e+	c #F9E64E",
"f+	c #DCC022",
"g+	c #C4A203",
"h+	c #E6CD32",
"i+	c #FAE964",
"j+	c #FBE84F",
"k+	c #F9E54B",
"l+	c #C4A000",
"m+	c #C6A203",
"n+	c #F5E148",
"o+	c #FFFCE7",
"p+	c #FDED72",
"q+	c #D6B81A",
"r+	c #C7A405",
"s+	c #EBD339",
"t+	c #FDF191",
"u+	c #FCEA59",
"v+	c #C5A202",
"w+	c #F5E047",
"x+	c #FFFCE9",
"y+	c #FDED73",
"z+	c #EFD940",
"A+	c #C4A101",
"B+	c #F3DE44",
"C+	c #FDF190",
"D+	c #FCEA58",
"E+	c #E8D036",
"F+	c #C2A005",
"G+	c #BA9800",
"H+	c #BFA00D",
"I+	c #C8AB18",
"J+	c #CFAF10",
"K+	c #CDAB0C",
"L+	c #C2A30E",
"M+	c #B5970A",
"N+	c #B89600",
"O+	c #313637",
"P+	c #494C4A",
"Q+	c #51534A",
"R+	c #212526",
"S+	c #262A2B",
"                                                                ",
"                                                                ",
"                            . + @ # $ % .                       ",
"                        % & * = - ; > , ' )                     ",
"                      ! ~ { ] ^ / ( _ : < [ } |                 ",
"                    1 2 3 : 4 5 6 7 8 9 0 a 0 b                 ",
"                  . c d e f g h i j j j 8 k - l m               ",
"                  n o e o 8 i p q r r r q s t u v               ",
"                  w x y z A B r C C D C E F G H I J             ",
"                K L M N O P Q R r 8 E R S T U V W X             ",
"                Y u F Z `  ...+.@.#.$.%.&.~ T *.=.-.            ",
"                ;.>.,.f '.).!.~.{.].^.]./.(._.:.<.[.            ",
"                  }.|.1.U 2.3.4.5.6.7.6.8.9.0.a.b.c.            ",
"                  d.,.e.f.~ g.h.7.i.j.i.k.l.m.n.o.              ",
"                    p.q.r.s.{.t.u.v.w.x.y.t.z.A.B.              ",
"                    C.D., 0.E.F.G.H.I.J.K.F.L.M.                ",
"                      N.O.P.E.Q.R.S.T.U.V.Q.W.X.                ",
"                      Y.Z.`. +.+++@+#+$+++%+&+                  ",
"                        *+P =+-+;+>+,+^.'+)+!+                  ",
"                        ~+{+]+^+/+(+_+:+<+[+                    ",
"                          }+|+1+2+3+4+5+6+7+                    ",
"                        8+9+0+a+b+c+d+e+f+                      ",
"                        g+h+i+j+d+d+d+d+k+l+                    ",
"                        m+n+o+p+d+d+d+e+q+                      ",
"                        r+s+t+u+d+d+d+d+k+l+                    ",
"                        v+w+x+y+d+d+d+d+z+A+                    ",
"                        8+B+C+D+d+d+d+d+E+F+                    ",
"                          G+H+I+J+K+L+M+N+                      ",
"                              O+P+Q+O+                          ",
"                                R+S+                            ",
"                                                                ",
"                                                                "};
