/* XPM */
static const char * messagebox_warn_xpm[] = {
"32 32 112 2",
"  	c None",
". 	c #D15E00",
"+ 	c #D56200",
"@ 	c #D36000",
"# 	c #D86400",
"$ 	c #F57900",
"% 	c #DC6700",
"& 	c #F17600",
"* 	c #F37700",
"= 	c #DD6800",
"- 	c #E26B00",
"; 	c #F27700",
"> 	c #F47800",
", 	c #D46000",
"' 	c #E06A00",
") 	c #E56E00",
"! 	c #F37800",
"~ 	c #F57B02",
"{ 	c #F67D05",
"] 	c #D46100",
"^ 	c #E26C00",
"/ 	c #F99722",
"( 	c #FA9C28",
"_ 	c #E87000",
": 	c #D25F00",
"< 	c #F67F07",
"[ 	c #FCAD3C",
"} 	c #FCAF3E",
"| 	c #F6830C",
"1 	c #D66200",
"2 	c #F99B27",
"3 	c #FAA02D",
"4 	c #EB7200",
"5 	c #D56100",
"6 	c #F6820A",
"7 	c #FCAE3D",
"8 	c #F78710",
"9 	c #D76300",
"0 	c #FA9E2B",
"a 	c #F6AB3D",
"b 	c #CF9135",
"c 	c #F4A93C",
"d 	c #FBA431",
"e 	c #ED7300",
"f 	c #F7850E",
"g 	c #ECA43B",
"h 	c #121312",
"i 	c #E09D39",
"j 	c #F78B14",
"k 	c #D96500",
"l 	c #D35F00",
"m 	c #EA7100",
"n 	c #FAA22F",
"o 	c #1F1C15",
"p 	c #141412",
"q 	c #F8AC3D",
"r 	c #FBA734",
"s 	c #F57A01",
"t 	c #F07500",
"u 	c #F78812",
"v 	c #3D2F1A",
"w 	c #292216",
"x 	c #F88E19",
"y 	c #EC7300",
"z 	c #FBA532",
"A 	c #5A4320",
"B 	c #42331B",
"C 	c #FBA938",
"D 	c #D96400",
"E 	c #F78C16",
"F 	c #775725",
"G 	c #5B4420",
"H 	c #F8921D",
"I 	c #DF6900",
"J 	c #EF7400",
"K 	c #FBA836",
"L 	c #9A6E2C",
"M 	c #745424",
"N 	c #FCAC3A",
"O 	c #F57D04",
"P 	c #DA6600",
"Q 	c #F8901A",
"R 	c #F8AD3D",
"S 	c #BC8532",
"T 	c #F99622",
"U 	c #F57B03",
"V 	c #FBAA38",
"W 	c #C08733",
"X 	c #A4742D",
"Y 	c #F8931E",
"Z 	c #CC8F35",
"` 	c #C58A34",
" .	c #F99A26",
"..	c #E46D00",
"+.	c #EDA53B",
"@.	c #231E15",
"#.	c #151513",
"$.	c #E19D39",
"%.	c #E06900",
"&.	c #FAAE3E",
"*.	c #F2A83C",
"=.	c #FA9E2A",
"-.	c #F67E06",
";.	c #C45900",
">.	c #C95C00",
",.	c #ED7400",
"'.	c #B95400",
").	c #CE5F00",
"!.	c #C85C00",
"~.	c #CA5D00",
"{.	c #C95D00",
"].	c #BA5500",
"                                                                ",
"                                                                ",
"                              . + @                             ",
"                            # $ $ %                             ",
"                          @ & $ $ * @                           ",
"                          = $ $ $ $ -                           ",
"                        @ ; $ $ $ $ > ,                         ",
"                        ' $ $ $ $ $ $ )                         ",
"                      @ ! $ $ ~ { $ $ $ ]                       ",
"                      ^ $ $ $ / ( $ $ $ _ :                     ",
"                    , > $ $ < [ } | $ $ $ 1                     ",
"                    ) $ $ $ 2 } } 3 $ $ $ 4 @                   ",
"                  5 $ $ $ 6 7 } } } 8 $ $ $ 9                   ",
"                : _ $ $ $ 0 a b b c d $ $ $ e @                 ",
"                1 $ $ $ f } g h h i } j $ $ $ k                 ",
"              l m $ $ $ n } } o p q } r s $ $ t @               ",
"              9 $ $ $ u } } } v w } } } x $ $ $ %               ",
"            @ y $ $ $ z } } } A B } } } C ~ $ $ & @             ",
"            D $ $ $ E } } } } F G } } } } H $ $ $ I             ",
"          @ J $ $ s K } } } } L M } } } } N O $ $ * ,           ",
"          P $ $ $ Q } } } } } R S } } } } } T $ $ $ -           ",
"        @ & $ $ U V } } } } } W X } } } } } [ < $ $ > ,         ",
"        % $ $ $ Y } } } } } Z h h ` } } } } }  .$ $ $ ..        ",
"      @ ; $ $ { N } } } } } +.@.#.$.} } } } } 7 6 $ $ $ ]       ",
"      %.$ $ $ / } } } } } } } &.*.} } } } } } } =.$ $ $ _       ",
"    , ! $ $ ~ 7 } } } } } } } } } } } } } } } } } -.$ $ $ +     ",
"    - $ $ $ $ $ $ $ $ $ $ $ $ $ $ $ $ $ $ $ $ $ $ $ $ $ $ m ;.  ",
"  @ & $ $ $ $ $ $ $ $ $ $ $ $ $ $ $ $ $ $ $ $ $ $ $ $ $ $ $ >.  ",
"  l _ $ $ $ $ $ $ $ $ $ $ $ $ $ $ $ $ $ $ $ $ $ $ $ $ $ $ ,.'.  ",
"    @ 9 9 ).!.!.!.!.!.!.!.!.!.!.!.!.!.!.!.!.!.!.!.!.~.{.~.].    ",
"                                                                ",
"                                                                "};
