/* XPM */
static const char * messagebox_error_xpm[] = {
"32 32 224 2",
"  	c None",
". 	c #AA0000",
"+ 	c #AE0A0A",
"@ 	c #B41616",
"# 	c #B92222",
"$ 	c #BB2828",
"% 	c #B41818",
"& 	c #A70000",
"* 	c #B21414",
"= 	c #C83838",
"- 	c #DA4D4D",
"; 	c #DB4B4B",
"> 	c #DA4545",
", 	c #D83E3E",
"' 	c #D83C3C",
") 	c #DB4C4C",
"! 	c #DA4E4E",
"~ 	c #C93A3A",
"{ 	c #B31515",
"] 	c #AC0D0D",
"^ 	c #CF4141",
"/ 	c #D94343",
"( 	c #D52A2A",
"_ 	c #D42828",
": 	c #D42929",
"< 	c #D42A2A",
"[ 	c #DA4343",
"} 	c #CF4343",
"| 	c #AE1010",
"1 	c #BD2424",
"2 	c #DA4C4C",
"3 	c #D42727",
"4 	c #D52B2B",
"5 	c #DB4D4D",
"6 	c #BE2727",
"7 	c #A90000",
"8 	c #C32C2C",
"9 	c #D42626",
"0 	c #D94242",
"a 	c #CA3636",
"b 	c #C02A2A",
"c 	c #D83D3D",
"d 	c #D32525",
"e 	c #D52C2C",
"f 	c #D83A3A",
"g 	c #C43030",
"h 	c #B31616",
"i 	c #DA4747",
"j 	c #D32424",
"k 	c #B41919",
"l 	c #A90101",
"m 	c #D74747",
"n 	c #D84949",
"o 	c #AB0303",
"p 	c #D73737",
"q 	c #D32323",
"r 	c #D63535",
"s 	c #C12B2B",
"t 	c #D64545",
"u 	c #D32222",
"v 	c #D84747",
"w 	c #B00F0F",
"x 	c #D93F3F",
"y 	c #B21313",
"z 	c #C22B2B",
"A 	c #D52F2F",
"B 	c #D22424",
"C 	c #D22323",
"D 	c #D22222",
"E 	c #D42C2C",
"F 	c #C42F2F",
"G 	c #C93636",
"H 	c #D32121",
"I 	c #D32626",
"J 	c #D32727",
"K 	c #D32828",
"L 	c #D12424",
"M 	c #D12323",
"N 	c #D12222",
"O 	c #D12121",
"P 	c #CB3B3B",
"Q 	c #CF3939",
"R 	c #D22020",
"S 	c #D22121",
"T 	c #FBE9E9",
"U 	c #FEFCFC",
"V 	c #F0B4B4",
"W 	c #D02323",
"X 	c #D02222",
"Y 	c #D02121",
"Z 	c #D03E3E",
"` 	c #A80000",
" .	c #D13838",
"..	c #D12020",
"+.	c #FBEBEB",
"@.	c #FFFFFF",
"#.	c #F0B6B6",
"$.	c #CF2222",
"%.	c #CF2121",
"&.	c #D13E3E",
"*.	c #CB3333",
"=.	c #CF2020",
"-.	c #EA9F9F",
";.	c #EDACAC",
">.	c #EDADAD",
",.	c #E37F7F",
"'.	c #CE2222",
").	c #CE2121",
"!.	c #CE2020",
"~.	c #CE3A3A",
"{.	c #C42C2C",
"].	c #CF2323",
"^.	c #CF2424",
"/.	c #CF2525",
"(.	c #CE2525",
"_.	c #CE2424",
":.	c #CE2323",
"<.	c #CD2121",
"[.	c #CC1E1E",
"}.	c #C63030",
"|.	c #BA1B1B",
"1.	c #C90E0E",
"2.	c #C70404",
"3.	c #C80707",
"4.	c #C80A0A",
"5.	c #C90D0D",
"6.	c #CA1010",
"7.	c #CA1414",
"8.	c #CB1717",
"9.	c #CC1C1C",
"0.	c #CD2525",
"a.	c #CD2424",
"b.	c #CD2323",
"c.	c #CD2222",
"d.	c #CA1717",
"e.	c #C70808",
"f.	c #C80C0C",
"g.	c #BC2222",
"h.	c #AC0909",
"i.	c #CC1D1D",
"j.	c #C50000",
"k.	c #C60505",
"l.	c #C70A0A",
"m.	c #C80F0F",
"n.	c #C81313",
"o.	c #C91515",
"p.	c #C91616",
"q.	c #C91818",
"r.	c #C81212",
"s.	c #C70F0F",
"t.	c #C50606",
"u.	c #C40000",
"v.	c #CB1E1E",
"w.	c #AE0D0D",
"x.	c #C92323",
"y.	c #C30000",
"z.	c #C20000",
"A.	c #C92929",
"B.	c #B31212",
"C.	c #C71212",
"D.	c #C10000",
"E.	c #C51111",
"F.	c #B61818",
"G.	c #C51F1F",
"H.	c #C20101",
"I.	c #C00000",
"J.	c #C00101",
"K.	c #C52424",
"L.	c #A80101",
"M.	c #AB0808",
"N.	c #C61919",
"O.	c #BF0000",
"P.	c #C61B1B",
"Q.	c #AC0B0B",
"R.	c #B10E0E",
"S.	c #C41212",
"T.	c #C31212",
"U.	c #B41313",
"V.	c #950000",
"W.	c #B00D0D",
"X.	c #C41313",
"Y.	c #BE0000",
"Z.	c #C31414",
"`.	c #B31111",
" +	c #910000",
".+	c #790000",
"++	c #A80808",
"@+	c #C11515",
"#+	c #BE0303",
"$+	c #BD0000",
"%+	c #BC0000",
"&+	c #BD0303",
"*+	c #C11717",
"=+	c #A90B0B",
"-+	c #770000",
";+	c #9E0202",
">+	c #B30F0F",
",+	c #C00D0D",
"'+	c #BE0606",
")+	c #BB0000",
"!+	c #BD0606",
"~+	c #BF0F0F",
"{+	c #B41212",
"]+	c #9D0303",
"^+	c #480000",
"/+	c #660000",
"(+	c #AA0B0B",
"_+	c #BB1111",
":+	c #BE0C0C",
"<+	c #BE0A0A",
"[+	c #BD0909",
"}+	c #BD0D0D",
"|+	c #BE1010",
"1+	c #BB1313",
"2+	c #AE0C0C",
"3+	c #9C0404",
"4+	c #650000",
"5+	c #9B0303",
"6+	c #9E0505",
"7+	c #A00606",
"8+	c #9A0303",
"9+	c #940000",
"0+	c #810000",
"a+	c #400000",
"                                                                ",
"                        . + @ # $ % + .                         ",
"                  & * = - ; > , ' > ) ! ~ { &                   ",
"                ] ^ / ( _ : < < < < < : < [ } |                 ",
"              1 2 < 3 _ : : < 4 4 4 < : : _ ( 5 6 7             ",
"          7 8 / 9 9 3 _ : < < 4 4 4 4 < : _ 3 9 0 a 7           ",
"          b c d 9 9 3 _ : < 4 e e e 4 < : _ 3 9 9 f g           ",
"        h i j d 9 9 3 _ : < 4 e e e 4 < : _ 3 9 9 d > k         ",
"      l m j j d 9 9 3 _ : < < 4 4 4 4 < : _ 3 9 9 d j n o       ",
"      6 p q j j d 9 3 _ : : < 4 4 4 < : : _ 3 9 d d j r s       ",
"    . t u q j j d 9 3 _ _ : < < < < < : _ _ 3 9 d j j q v .     ",
"    w x u q q j d 9 9 3 _ : : : : : : : _ 3 3 9 d j q q , y     ",
"    z A u u q j d d 9 3 3 _ _ : : : _ _ 3 3 9 d d B C D E F     ",
"    G q H u q j j d I I J J K K K K K J J I I d B L M N O P     ",
"    Q R S D D T U U U U U U U U U U U U U U U U V W W X Y Z `   ",
"  7  ...O O N +.@.@.@.@.@.@.@.@.@.@.@.@.@.@.@.@.#.W $.%.%.&.7   ",
"    *.=.=.%.$.-.;.;.>.>.>.>.>.>.>.>.>.>.>.>.>.;.,.$.'.).!.~.`   ",
"    {.$.!.).).'.].].^.^./././././.(.(.(.(._._.:.:.'.<.<.[.}.    ",
"    |.1.2.3.4.5.6.7.8.9.<._._.(.(.0.a.a.a.a.b.b.c.<.d.e.f.g.    ",
"    h.i.j.j.j.j.j.j.j.j.j.j.k.l.m.n.o.p.q.o.r.s.t.u.u.u.v.w.    ",
"    ` x.u.u.u.u.u.y.y.y.y.y.y.y.y.y.y.y.y.y.y.y.y.z.z.z.A.`     ",
"      B.C.y.y.y.y.z.z.z.z.z.z.z.z.z.z.z.z.z.z.z.z.D.D.E.F.      ",
"      ` G.H.z.z.z.D.D.D.D.D.D.D.D.D.D.D.D.D.D.D.D.I.J.K.L.      ",
"        M.N.D.D.D.I.I.I.I.I.I.I.I.I.I.I.I.I.I.I.I.O.P.Q.        ",
"          R.S.I.I.O.O.O.O.O.O.O.O.O.O.O.O.O.O.O.O.T.U.          ",
"          V.W.X.O.Y.Y.Y.Y.Y.Y.Y.Y.Y.Y.Y.Y.Y.Y.Y.Z.`. +          ",
"            .+++@+#+$+$+$+$+$+$+$+%+%+%+%+%+&+*+=+-+            ",
"                ;+>+,+'+%+%+%+%+%+)+)+)+!+~+{+]+^+              ",
"                  /+]+(+_+~+:+<+[+}+|+1+2+3+4+                  ",
"                        .+V.5+6+7+8+9+0+a+                      ",
"                                                                ",
"                                                                "};
