/* XPM */
static const char * messagebox_quest_xpm[] = {
"32 32 216 2",
"  	c None",
". 	c #3B6BA8",
"+ 	c #3A6AA8",
"@ 	c #7698C4",
"# 	c #F7F9FC",
"$ 	c #7698C3",
"% 	c #799BC5",
"& 	c #FAFCFD",
"* 	c #D2E0F0",
"= 	c #D5E3F1",
"- 	c #FAFBFD",
"; 	c #CCDCEE",
"> 	c #74A0D0",
", 	c #CDDDEE",
"' 	c #729FCF",
") 	c #799BC4",
"! 	c #719ECF",
"~ 	c #719ECE",
"{ 	c #729ECF",
"] 	c #CBDCED",
"^ 	c #789AC4",
"/ 	c #739FD0",
"( 	c #709DCE",
"_ 	c #6F9CCE",
": 	c #6E9CCD",
"< 	c #6E9BCD",
"[ 	c #6F9BCD",
"} 	c #CADBED",
"| 	c #A6C2E1",
"1 	c #EAF1F8",
"2 	c #FEFFFF",
"3 	c #FFFFFF",
"4 	c #ECF2F8",
"5 	c #AEC7E3",
"6 	c #6F9CCD",
"7 	c #6D9ACB",
"8 	c #6C9ACB",
"9 	c #6E9ACC",
"0 	c #CADAEC",
"a 	c #7799C4",
"b 	c #709DCF",
"c 	c #DBE6F3",
"d 	c #F8FAFD",
"e 	c #BFD3E9",
"f 	c #6B98CA",
"g 	c #6A98CA",
"h 	c #6997CA",
"i 	c #6B97CA",
"j 	c #C9D9EC",
"k 	c #F9FBFD",
"l 	c #BBD0E7",
"m 	c #8BAFD6",
"n 	c #759FCE",
"o 	c #F3F6FB",
"p 	c #E9F0F7",
"q 	c #6997C9",
"r 	c #6896C8",
"s 	c #6895C8",
"t 	c #6795C7",
"u 	c #C8D8EB",
"v 	c #7699C3",
"w 	c #789BC5",
"x 	c #729ED0",
"y 	c #6D9ACC",
"z 	c #6C99CB",
"A 	c #6B99CB",
"B 	c #6C98CB",
"C 	c #EEF3F9",
"D 	c #DBE6F2",
"E 	c #6694C7",
"F 	c #6693C6",
"G 	c #6593C6",
"H 	c #C8D8EA",
"I 	c #4F7AB2",
"J 	c #CEDEEE",
"K 	c #6E9BCC",
"L 	c #6D9BCC",
"M 	c #6B99CA",
"N 	c #6A97C9",
"O 	c #CFDDED",
"P 	c #FEFEFF",
"Q 	c #92B2D7",
"R 	c #6592C6",
"S 	c #6492C5",
"T 	c #6391C5",
"U 	c #6390C4",
"V 	c #6491C5",
"W 	c #4C79B0",
"X 	c #7C9DC6",
"Y 	c #87ADD6",
"Z 	c #6C9ACC",
"` 	c #6A97CA",
" .	c #6896C9",
"..	c #C4D6EA",
"+.	c #A5C0DE",
"@.	c #6492C6",
"#.	c #6392C5",
"$.	c #6290C4",
"%.	c #6190C4",
"&.	c #618FC3",
"*.	c #608FC3",
"=.	c #7AA1CC",
"-.	c #7B9CC4",
";.	c #3F6EAA",
">.	c #E3EBF4",
",.	c #EBF1F8",
"'.	c #7EA6D1",
").	c #6C99CA",
"!.	c #6996C8",
"~.	c #7AA1CE",
"{.	c #C0D2E8",
"].	c #6391C4",
"^.	c #628FC3",
"/.	c #608EC3",
"(.	c #608DC2",
"_.	c #729AC9",
":.	c #EAF0F7",
"<.	c #E1E9F3",
"[.	c #3C6CA8",
"}.	c #4F7AB1",
"|.	c #7BA3CF",
"1.	c #6996C9",
"2.	c #6795C8",
"3.	c #6794C7",
"4.	c #739CCB",
"5.	c #9DBADA",
"6.	c #79A1CD",
"7.	c #608EC2",
"8.	c #5F8DC2",
"9.	c #5E8DC2",
"0.	c #7199C8",
"a.	c #E0E9F2",
"b.	c #4C78B0",
"c.	c #4E7AB1",
"d.	c #E2EAF4",
"e.	c #79A2CE",
"f.	c #6594C6",
"g.	c #6493C5",
"h.	c #709AC9",
"i.	c #92B3D6",
"j.	c #92B2D6",
"k.	c #729BC9",
"l.	c #5F8EC2",
"m.	c #5E8DC1",
"n.	c #5E8CC1",
"o.	c #5D8CC0",
"p.	c #6F99C7",
"q.	c #E9EFF6",
"r.	c #4C78AF",
"s.	c #E2EAF3",
"t.	c #EAF1F7",
"u.	c #789FCD",
"v.	c #8EAFD4",
"w.	c #97B5D7",
"x.	c #5D8CC1",
"y.	c #5D8BC0",
"z.	c #5C8AC0",
"A.	c #6E98C6",
"B.	c #E0E8F2",
"C.	c #759ECC",
"D.	c #6291C4",
"E.	c #6190C3",
"F.	c #8DAED3",
"G.	c #97B4D7",
"H.	c #5C8BC0",
"I.	c #5B8ABF",
"J.	c #6E97C6",
"K.	c #4E7AB0",
"L.	c #729CCA",
"M.	c #6B95C6",
"N.	c #8CAED3",
"O.	c #8CADD3",
"P.	c #6D96C6",
"Q.	c #5B8AC0",
"R.	c #5B89BF",
"S.	c #5A89BF",
"T.	c #6C96C6",
"U.	c #4E79AF",
"V.	c #5C8ABF",
"W.	c #5A88BE",
"X.	c #5988BE",
"Y.	c #6C95C5",
"Z.	c #4B77AF",
"`.	c #4C77AD",
" +	c #6F98C7",
".+	c #5A89BE",
"++	c #5987BE",
"@+	c #5887BD",
"#+	c #6C94C5",
"$+	c #DFE8F2",
"%+	c #4B76AD",
"&+	c #4B77AD",
"*+	c #6C96C5",
"=+	c #5987BD",
"-+	c #5886BD",
";+	c #5785BC",
">+	c #6A93C4",
",+	c #E8EFF6",
"'+	c #4A74AA",
")+	c #4A75AB",
"!+	c #6A94C4",
"~+	c #5686BC",
"{+	c #5685BC",
"]+	c #6992C3",
"^+	c #4974AB",
"/+	c #E8EEF6",
"(+	c #6991C3",
"_+	c #DFE7F2",
":+	c #4973AA",
"<+	c #EFF3F8",
"[+	c #F4F7FA",
"}+	c #4974AA",
"|+	c #4973A8",
"1+	c #A9BED9",
"2+	c #BECEE2",
"3+	c #4670A5",
"                                                                ",
"                              . +                               ",
"                            @ # # $                             ",
"                          % & * = - %                           ",
"                        % & ; > > , - %                         ",
"                      % & ; > ' ' > , - %                       ",
"                    % & ; > ' ' ' ' > , - %                     ",
"                  % & ; > ' ' ' ' ' ' > ; - )                   ",
"                % & ; > ' ' ' ' ' ' ! ~ { ] - ^                 ",
"              % & ; > ' ' ' ' ! / ( _ : < [ } - ^               ",
"            % & ; > ' ' ' | 1 2 3 4 5 6 7 8 9 0 - a             ",
"          % & ; > ' ! b ( c 3 d 3 3 3 e f g h i j k a           ",
"        % & ; > ! ~ ( 6 6 l m 7 n o 3 p q r s t s u k v         ",
"      w & ; x ( _ : < y y z A f B C 3 D s t E F G F H k $       ",
"    I k J { 6 6 K L 7 z M f N N O 3 P Q E G R S T U V H k W     ",
"    X 3 Y < y Z z A g ` q  .r ..3 3 +.G @.#.T $.%.&.*.=.3 -.    ",
"    ;.>.,.'.).M f N q !.r t ~.3 3 {.S V ].$.^.&./.(._.:.<.[.    ",
"      }.>.,.|.q 1.r 2.3.E G 4.5.5.6.$.$.&.*.7.8.9.0.p a.b.      ",
"        c.d.,.e.t E f.G g.#.h.i.j.k.*.7.l.m.n.o.p.q.a.r.        ",
"          c.s.t.u.R S T ].$.v.3 3 w.8.n.x.y.z.A.q.B.r.          ",
"            c.s.:.C.D.$.E.*.F.3 3 G.x.y.H.I.J.q.B.r.            ",
"              K.s.:.L./.l.9.M.N.O.P.Q.R.S.T.q.B.r.              ",
"                U.<.p 0.n.y.H.V.I.S.W.X.Y.q.B.Z.                ",
"                  `.<.q. +I.R..+W.++@+#+q.$+%+                  ",
"                    &+a.q.*+=+@+-+;+>+,+$+'+                    ",
"                      )+B.,+!+~+{+]+,+$+^+                      ",
"                        )+B./+]+(+/+_+:+                        ",
"                          )+B.<+[+_+}+                          ",
"                            |+1+2+3+                            ",
"                                                                ",
"                                                                ",
"                                                                "};
